# xmcd
#
# Track frame offsets:
# 150
# 5855
# 21701
# 38189
# 40685
# 62512
# 68354
# 87101
# 105709
# 126511
# 143998
# 164440
# 185170
# 200976
#
# Disc length: 2995 seconds
#
# Revision: 0
# Processed by: cddbd v1.5.1PL2 Copyright (c) Steve Scherf et al.
# Submitted via: Audion 3.0.2 (http://www.panic.com/audion/)
#
DISCID=d00bb10e
DTITLE=Jurassic 5 - Quality Control
DYEAR=1900
DGENRE=
TTITLE0=Into: How We Get Along
TTITLE1=Influence
TTITLE2=Great Expectations
TTITLE3=Quality Control (Intro)
TTITLE4=Quality Control
TTITLE5=Contact
TTITLE6=Lausd
TTITLE7=W.O.E. Is Me (World Of Entertainment)
TTITLE8=Monkey Bars
TTITLE9=Jurass Finish First
TTITLE10=Contribution
TTITLE11=Twelve
TTITLE12=Game
TTITLE13=Improvise
EXTD=
EXTT0=
EXTT1=
EXTT2=
EXTT3=
EXTT4=
EXTT5=
EXTT6=
EXTT7=
EXTT8=
EXTT9=
EXTT10=
EXTT11=
EXTT12=
EXTT13=
PLAYORDER=
